HIERARCHY
ROOT Hips
{
 OFFSET 0.000000 0.000000 0.000000
 CHANNELS 6 Xposition Yposition Zposition Yrotation Xrotation Zrotation
 JOINT Chest
 {
  OFFSET 0.000000 9.588913 -0.003946
  CHANNELS 3 Yrotation Xrotation Zrotation
  JOINT Chest2
  {
   OFFSET 0.000000 9.541882 0.008053
   CHANNELS 3 Yrotation Xrotation Zrotation
   JOINT Chest3
   {
    OFFSET 0.000000 9.501360 0.000000
    CHANNELS 3 Yrotation Xrotation Zrotation
    JOINT Chest4
    {
     OFFSET 0.000000 9.491660 0.000000
     CHANNELS 3 Yrotation Xrotation Zrotation
     JOINT Neck
     {
      OFFSET 0.000000 14.331917 0.000000
      CHANNELS 3 Yrotation Xrotation Zrotation
      JOINT Head
      {
       OFFSET 0.000000 8.884799 0.017034
       CHANNELS 3 Yrotation Xrotation Zrotation
       End Site
       {
        OFFSET 0.000000 16.896195 0.008993
       }
      }
     }
     JOINT RightCollar
     {
      OFFSET -2.923010 9.499495 0.000000
      CHANNELS 3 Yrotation Xrotation Zrotation
      JOINT RightShoulder
      {
       OFFSET -13.795216 0.000000 0.000000
       CHANNELS 3 Yrotation Xrotation Zrotation
       JOINT RightElbow
       {
        OFFSET -30.272209 0.000000 0.000000
        CHANNELS 3 Yrotation Xrotation Zrotation
        JOINT RightWrist
        {
         OFFSET -24.478199 0.000000 0.000000
         CHANNELS 3 Yrotation Xrotation Zrotation
         End Site
         {
          OFFSET -18.090752 0.000000 0.000000
         }
        }
       }
      }
     }
     JOINT LeftCollar
     {
      OFFSET 2.923010 9.499495 0.000000
      CHANNELS 3 Yrotation Xrotation Zrotation
      JOINT LeftShoulder
      {
       OFFSET 13.795216 0.000000 0.000000
       CHANNELS 3 Yrotation Xrotation Zrotation
       JOINT LeftElbow
       {
        OFFSET 30.272209 0.000000 0.000000
        CHANNELS 3 Yrotation Xrotation Zrotation
        JOINT LeftWrist
        {
         OFFSET 24.478199 0.000000 0.000000
         CHANNELS 3 Yrotation Xrotation Zrotation
         End Site
         {
          OFFSET 18.090752 0.000000 0.000000
         }
        }
       }
      }
     }
    }
   }
  }
 }
 JOINT RightHip
 {
  OFFSET -7.826875 0.019532 0.001973
  CHANNELS 3 Yrotation Xrotation Zrotation
  JOINT RightKnee
  {
   OFFSET 0.000000 -40.546152 -0.001885
   CHANNELS 3 Yrotation Xrotation Zrotation
   JOINT RightAnkle
   {
    OFFSET 0.000000 -39.417092 -0.003189
    CHANNELS 3 Yrotation Xrotation Zrotation
    JOINT RightToe
    {
     OFFSET 0.000000 -7.579396 17.243563
     CHANNELS 3 Yrotation Xrotation Zrotation
     End Site
     {
      OFFSET 0.000000 -1.500329 6.694466
     }
    }
   }
  }
 }
 JOINT LeftHip
 {
  OFFSET 7.826875 0.019532 0.001973
  CHANNELS 3 Yrotation Xrotation Zrotation
  JOINT LeftKnee
  {
   OFFSET 0.000000 -40.546152 -0.001885
   CHANNELS 3 Yrotation Xrotation Zrotation
   JOINT LeftAnkle
   {
    OFFSET 0.000000 -39.417092 -0.003189
    CHANNELS 3 Yrotation Xrotation Zrotation
    JOINT LeftToe
    {
     OFFSET 0.000000 -7.579396 17.243563
     CHANNELS 3 Yrotation Xrotation Zrotation
     End Site
     {
      OFFSET 0.000000 -1.500329 6.694466
     }
    }
   }
  }
 }
}
MOTION
Frames: 10
Frame Time: 0.008333
0.000000 87.345680 0.000000 0.000000 -5.767889 0.000000 0.000000 11.653876 0.000000 0.000000 -5.885988 0.000000 0.000000 -0.000000 0.000000 0.000000 -0.000000 0.000000 0.000000 12.528808 0.000000 0.000000 0.711711 0.000000 0.000000 -0.000000 0.000000 0.000000 -0.000000 0.000000 2.309063 -0.000000 0.000000 -2.309063 -0.000000 -0.000000 0.000000 -0.000000 0.000000 0.000000 0.000000 0.000000 -2.309063 0.000000 0.000000 2.309063 -0.000000 0.000000 0.000000 8.520374 0.000000 0.000000 1.905768 0.000000 -0.000000 -4.658254 0.000000 0.000000 -0.000000 0.000000 0.000000 8.520374 0.000000 0.000000 1.905768 0.000000 -0.000000 -4.658254 0.000000 0.000000 -0.000000 0.000000
27.362432 87.966417 -2.263852 42.953461 -8.866496 2.799210 1.884704 4.600924 0.763100 1.051121 2.634659 0.470795 1.317634 3.291932 0.596207 1.051121 2.634659 0.470795 2.117920 20.969778 -2.087059 2.747021 -3.362892 -2.721004 -5.345067 3.170243 -3.829270 -3.029032 5.827968 90.130182 8.658363 -5.354609 2.924094 4.384365 -3.822499 -8.007547 -3.355749 2.577098 1.246539 4.410804 -0.689860 -89.774667 -7.614072 0.258183 -3.726558 0.431810 -2.388480 6.714741 2.165828 15.577173 -13.410913 -4.988566 5.907617 1.425389 -5.477593 -8.728101 9.142095 0.020211 -0.119640 -0.016681 8.585973 11.283720 6.387654 8.741235 0.586618 0.109302 0.726504 -2.559783 -5.500099 0.012347 0.146878 0.008484
27.356909 87.966013 -2.258597 42.934273 -8.861815 2.789971 1.885661 4.605933 0.764642 1.051542 2.636846 0.471139 1.318165 3.294664 0.596647 1.051542 2.636846 0.471139 2.112936 20.956654 -2.079487 2.739751 -3.378526 -2.711555 -5.355598 3.180201 -3.838810 -3.074331 5.859633 90.139415 8.738877 -5.307630 2.949309 4.428221 -3.825754 -8.046438 -3.370760 2.573409 1.237650 4.394314 -0.713199 -89.772442 -7.591817 0.244140 -3.699777 0.440270 -2.388247 6.714952 2.186125 15.582600 -13.389586 -4.990412 5.881380 1.419515 -5.479708 -8.715718 9.143516 0.020536 -0.117675 -0.015672 8.606903 11.285718 6.401206 8.729191 0.575216 0.115097 0.735733 -2.557569 -5.510352 0.013124 0.148937 0.009135
27.350838 87.965656 -2.252803 42.914673 -8.855419 2.781001 1.885519 4.609568 0.765907 1.051162 2.638443 0.471482 1.317696 3.296660 0.597078 1.051162 2.638443 0.471482 2.110040 20.944425 -2.072422 2.734861 -3.393026 -2.703152 -5.368050 3.199783 -3.849091 -3.106414 5.878535 90.146981 8.815771 -5.271429 2.976795 4.488573 -3.829462 -8.093650 -3.380356 2.575682 1.226554 4.399749 -0.739423 -89.769810 -7.576388 0.234790 -3.679961 0.442391 -2.393114 6.722252 2.206824 15.583800 -13.367706 -4.989025 5.859559 1.412468 -5.483635 -8.705045 9.144857 0.020578 -0.115950 -0.014441 8.630753 11.288174 6.415663 8.716199 0.559390 0.119022 0.743841 -2.552645 -5.518798 0.013995 0.150695 0.008828
27.344276 87.965341 -2.246627 42.895863 -8.846873 2.771443 1.884807 4.612621 0.767336 1.050299 2.639584 0.471883 1.316622 3.298087 0.597577 1.050299 2.639584 0.471883 2.107737 20.933422 -2.064355 2.730385 -3.406120 -2.693821 -5.383718 3.221753 -3.858356 -3.122395 5.887456 90.149628 8.884593 -5.243689 3.004505 4.551062 -3.834720 -8.139342 -3.389039 2.580433 1.217241 4.425056 -0.763686 -89.770456 -7.568604 0.227956 -3.666890 0.440710 -2.402544 6.737528 2.223084 15.578800 -13.346774 -4.984398 5.843674 1.405935 -5.485796 -8.696679 9.146157 0.020808 -0.114782 -0.013720 8.656273 11.288795 6.431900 8.707412 0.542478 0.120980 0.746146 -2.547075 -5.526719 0.015426 0.152565 0.008886
27.337785 87.965124 -2.240085 42.877815 -8.838788 2.762398 1.883402 4.616500 0.768550 1.049020 2.641025 0.472047 1.315026 3.299889 0.597777 1.049020 2.641025 0.472047 2.105147 20.924405 -2.054442 2.725186 -3.416991 -2.682452 -5.401005 3.240005 -3.867657 -3.119422 5.889922 90.150492 8.939419 -5.225470 3.028248 4.607466 -3.838301 -8.175029 -3.397874 2.584371 1.211009 4.461359 -0.782719 -89.773602 -7.566506 0.218072 -3.659092 0.434363 -2.414619 6.758271 2.234340 15.570115 -13.328904 -4.979348 5.834753 1.401277 -5.483800 -8.691246 9.147288 0.021476 -0.114318 -0.013627 8.680068 11.288820 6.447809 8.702946 0.528427 0.122821 0.745559 -2.542495 -5.535629 0.017107 0.153931 0.009778
27.331749 87.965005 -2.233417 42.861290 -8.832508 2.755401 1.880867 4.621120 0.768924 1.047117 2.643175 0.471662 1.312647 3.302580 0.597288 1.047117 2.643175 0.471662 2.101135 20.917752 -2.042624 2.718028 -3.425245 -2.668720 -5.418668 3.255643 -3.877169 -3.098583 5.883345 90.154296 8.977269 -5.218089 3.043568 4.651697 -3.839454 -8.194379 -3.404522 2.587607 1.207302 4.489827 -0.799406 -89.777238 -7.567511 0.198740 -3.655393 0.427165 -2.430041 6.782937 2.240576 15.560928 -13.315838 -4.971834 5.830163 1.399887 -5.482087 -8.688165 9.146542 0.022473 -0.114049 -0.012988 8.698188 11.289077 6.459652 8.701435 0.518720 0.127385 0.746418 -2.539116 -5.545819 0.018358 0.154307 0.010689
27.326096 87.964933 -2.226717 42.846191 -8.828351 2.749968 1.876762 4.626710 0.768964 1.044386 2.646173 0.471056 1.309233 3.306333 0.596519 1.044386 2.646173 0.471056 2.096015 20.912666 -2.029560 2.709398 -3.431769 -2.653400 -5.434787 3.270675 -3.885722 -3.064360 5.865159 90.159837 8.998578 -5.221924 3.050654 4.680170 -3.838989 -8.196370 -3.407814 2.587291 1.205063 4.506114 -0.812900 -89.780733 -7.572047 0.174075 -3.654481 0.424123 -2.445619 6.807620 2.243097 15.552835 -13.306635 -4.960496 5.827533 1.401750 -5.482547 -8.685962 9.143186 0.022924 -0.114050 -0.011360 8.714030 11.290286 6.467637 8.701769 0.511266 0.136379 0.746558 -2.536124 -5.557831 0.018973 0.153928 0.011331
27.320867 87.964907 -2.219808 42.830695 -8.828236 2.745614 1.871570 4.633816 0.769315 1.040995 2.650184 0.470706 1.304996 3.311353 0.596070 1.040995 2.650184 0.470706 2.089648 20.908486 -2.016317 2.699394 -3.437293 -2.637605 -5.445605 3.284289 -3.892989 -3.021753 5.837967 90.164988 9.001524 -5.238335 3.051575 4.695057 -3.835907 -8.186380 -3.410437 2.583274 1.202791 4.516150 -0.822816 -89.783693 -7.578577 0.150303 -3.653902 0.423268 -2.456242 6.825468 2.246119 15.546801 -13.300055 -4.949266 5.829808 1.407074 -5.483106 -8.685758 9.136892 0.022921 -0.114411 -0.008853 8.736093 11.294970 6.475539 8.699760 0.504196 0.146714 0.743556 -2.532780 -5.569109 0.019103 0.152824 0.010893
27.316081 87.964919 -2.212693 42.812120 -8.832816 2.742744 1.865950 4.642190 0.769803 1.037135 2.655072 0.470390 1.300175 3.317468 0.595661 1.037135 2.655072 0.470390 2.082320 20.904541 -2.003664 2.688496 -3.442556 -2.622224 -5.449632 3.295030 -3.899884 -2.975768 5.804066 90.173109 8.984712 -5.266992 3.045756 4.697452 -3.831451 -8.169147 -3.412276 2.578894 1.197724 4.520903 -0.833009 -89.783286 -7.582231 0.132126 -3.651912 0.419096 -2.462530 6.834071 2.253989 15.542880 -13.295676 -4.942072 5.838863 1.415960 -5.482161 -8.688674 9.127566 0.023103 -0.114699 -0.005678 8.769264 11.303467 6.485565 8.691908 0.498727 0.155212 0.738186 -2.529313 -5.576969 0.019700 0.150779 0.008757
